# 
# Generated by Sweet Home 3D - mi? abr 17 00:29:04 COT 2024
# http://www.sweethome3d.com/
# 
mtllib estructura_cerveceria.mtl
g ground_1
usemtl ground_1
v 96.67297 0.0 -202.30777
v 96.67297 0.0 1407.1927
v 1205.173 0.0 1407.1927
v 1205.173 0.0 -202.30777
v 1197.1923 0.0 -200.40387
v 1197.1923 0.0 800.5959
v 1199.0385 0.0 802.442
v 1199.0385 0.0 1400.442
v 597.03845 0.0 1400.442
v 597.03845 0.0 802.442
v 595.19226 0.0 800.5959
v 595.19226 0.0 597.13446
v 99.03844 0.0 597.13446
v 99.03845 0.0 200.13446
v 595.19226 0.0 200.13446
v 595.19226 0.0 -200.40387
vn 0.0 1.0 0.0
vn 0.0 0.0 0.0
f 5//1 4//1 1//1
f 16//1 5//1 1//1
f 15//1 16//1 1//1
f 14//1 15//1 1//1
f 14//1 1//1 2//1
f 13//1 14//1 2//1
f 12//1 13//1 2//1
f 11//1 12//1 2//1
f 7//1 6//1 11//1
f 10//1 7//1 11//1
f 10//1 11//1 2//1
f 9//1 10//1 2//1
f 9//1 2//1 3//1
f 8//1 9//1 3//1
f 8//1 3//1 4//1
f 7//1 8//1 4//1
f 7//1 4//1 5//1
f 7//1 5//1 6//1
g wall_1_2
usemtl wall_1_2
v 595.423 0.0 -202.30777
v 595.423 0.0 -198.55777
v 1201.423 0.0 -198.55777
vn 0.0 -1.0 0.0
f 4//3 19//3 18//3
f 4//3 18//3 17//3
g wall_1_3
usemtl wall_1_2
v 595.423 0.0 -194.80777
v 1197.673 0.0 -194.80777
f 19//3 21//3 20//3
f 19//3 20//3 18//3
g wall_1_4
usemtl wall_1_2
v 595.423 250.0 -198.55777
v 595.423 250.0 -202.30777
v 1205.173 250.0 -202.30777
v 1201.423 250.0 -198.55777
vn -1.0 0.0 0.0
vn 0.70710677 0.0 0.70710677
vn 0.0 0.0 -1.0
f 17//4 18//4 22//4 23//4
f 19//5 4//5 24//5 25//5
f 4//6 17//6 23//6 24//6
g wall_1_5
usemtl wall_1_2
v 595.423 250.0 -194.80777
v 1197.673 250.0 -194.80777
vn 0.0 0.0 1.0
f 18//4 20//4 26//4 22//4
f 20//7 21//7 27//7 26//7
f 21//5 19//5 25//5 27//5
g wall_1_6
usemtl wall_1_2
f 23//1 22//1 25//1
f 23//1 25//1 24//1
g wall_1_7
usemtl wall_1_2
f 22//1 26//1 27//1
f 22//1 27//1 25//1
g wall_2_8
usemtl wall_1_2
v 1201.423 0.0 1402.4423
v 1205.173 0.0 1406.1923
f 29//3 28//3 19//3
f 29//3 19//3 4//3
g wall_2_9
usemtl wall_1_2
v 1197.673 0.0 1398.6923
f 28//3 30//3 21//3
f 28//3 21//3 19//3
g wall_2_10
usemtl wall_1_2
v 1205.173 250.0 1406.1923
v 1201.423 250.0 1402.4423
vn -0.70710677 0.0 -0.70710677
vn -0.70710677 0.0 0.70710677
vn 1.0 0.0 0.0
f 4//8 19//8 25//8 24//8
f 28//9 29//9 31//9 32//9
f 29//10 4//10 24//10 31//10
g wall_2_11
usemtl wall_1_2
v 1197.673 250.0 1398.6923
f 19//8 21//8 27//8 25//8
f 21//4 30//4 33//4 27//4
f 30//9 28//9 32//9 33//9
g wall_2_12
usemtl wall_1_2
f 24//1 25//1 32//1
f 24//1 32//1 31//1
g wall_2_13
usemtl wall_1_2
f 25//1 27//1 33//1
f 25//1 33//1 32//1
g wall_3_14
usemtl wall_1_2
v 595.423 0.0 1402.4423
v 591.673 0.0 1406.1923
v 671.11523 0.0 1406.1923
v 671.11523 0.0 1402.4423
f 37//3 36//3 35//3
f 37//3 35//3 34//3
v 762.61523 0.0 1402.4423
v 762.61523 0.0 1406.1923
f 28//3 29//3 39//3
f 28//3 39//3 38//3
g wall_3_15
usemtl wall_1_2
v 599.173 0.0 1398.6923
v 671.11523 0.0 1398.6923
f 41//3 37//3 34//3
f 41//3 34//3 40//3
v 762.61523 0.0 1398.6923
f 30//3 28//3 38//3
f 30//3 38//3 42//3
g wall_3_16
usemtl wall_1_2
v 591.673 250.0 1406.1923
v 595.423 250.0 1402.4423
v 671.11523 250.0 1406.1923
v 671.11523 250.0 1402.4423
f 34//8 35//8 43//8 44//8
f 35//7 36//7 45//7 43//7
f 36//10 37//10 46//10 45//10
v 762.61523 250.0 1406.1923
v 762.61523 250.0 1402.4423
vn 0.70710677 0.0 -0.70710677
f 38//4 39//4 47//4 48//4
f 39//7 29//7 31//7 47//7
f 29//11 28//11 32//11 31//11
v 671.11523 208.5 1402.4423
v 671.11523 208.5 1406.1923
v 762.61523 208.5 1406.1923
v 762.61523 208.5 1402.4423
f 49//4 50//4 45//4 46//4
f 50//7 51//7 47//7 45//7
f 51//10 52//10 48//10 47//10
f 52//3 51//3 50//3
f 52//3 50//3 49//3
g wall_3_17
usemtl wall_1_2
v 599.173 250.0 1398.6923
v 671.11523 250.0 1398.6923
f 40//8 34//8 44//8 53//8
f 37//10 41//10 54//10 46//10
f 41//6 40//6 53//6 54//6
v 762.61523 250.0 1398.6923
f 42//4 38//4 48//4 55//4
f 28//11 30//11 33//11 32//11
f 30//6 42//6 55//6 33//6
v 671.11523 208.5 1398.6923
v 762.61523 208.5 1398.6923
f 56//4 49//4 46//4 54//4
f 52//10 57//10 55//10 48//10
f 57//6 56//6 54//6 55//6
f 57//3 52//3 49//3
f 57//3 49//3 56//3
g wall_3_18
usemtl wall_1_2
f 44//1 43//1 45//1
f 44//1 45//1 46//1
f 48//1 47//1 31//1
f 48//1 31//1 32//1
f 46//1 45//1 47//1
f 46//1 47//1 48//1
g wall_3_19
usemtl wall_1_2
f 53//1 44//1 46//1
f 53//1 46//1 54//1
f 55//1 48//1 32//1
f 55//1 32//1 33//1
f 54//1 46//1 48//1
f 54//1 48//1 55//1
g wall_4_20
usemtl wall_1_2
v 595.423 0.0 800.1537
v 595.423 0.0 803.9037
v 709.88446 0.0 803.9037
v 709.88446 0.0 800.1537
f 61//3 60//3 59//3
f 61//3 59//3 58//3
v 892.88446 0.0 800.1537
v 892.88446 0.0 803.9037
v 1201.423 0.0 803.9037
v 1201.423 0.0 800.1537
f 65//3 64//3 63//3
f 65//3 63//3 62//3
g wall_4_21
usemtl wall_1_2
v 595.423 0.0 807.6537
v 709.88446 0.0 807.6537
f 60//3 67//3 66//3
f 60//3 66//3 59//3
v 892.88446 0.0 807.6537
v 1201.423 0.0 807.6537
f 64//3 69//3 68//3
f 64//3 68//3 63//3
g wall_4_22
usemtl wall_1_2
v 595.423 250.0 803.9037
v 595.423 250.0 800.1537
v 709.88446 250.0 800.1537
v 709.88446 250.0 803.9037
f 58//4 59//4 70//4 71//4
f 60//10 61//10 72//10 73//10
f 61//6 58//6 71//6 72//6
v 892.88446 250.0 803.9037
v 892.88446 250.0 800.1537
v 1201.423 250.0 800.1537
v 1201.423 250.0 803.9037
f 62//4 63//4 74//4 75//4
f 64//10 65//10 76//10 77//10
f 65//6 62//6 75//6 76//6
v 709.88446 208.5 800.1537
v 709.88446 208.5 803.9037
v 801.38446 208.5 803.9037
v 801.38446 208.5 800.1537
v 801.38446 250.0 800.1537
v 801.38446 250.0 803.9037
f 78//4 79//4 73//4 72//4
f 80//10 81//10 82//10 83//10
f 81//6 78//6 72//6 82//6
f 81//3 80//3 79//3
f 81//3 79//3 78//3
v 892.88446 208.5 803.9037
v 892.88446 208.5 800.1537
f 81//4 80//4 83//4 82//4
f 84//10 85//10 75//10 74//10
f 85//6 81//6 82//6 75//6
f 85//3 84//3 80//3
f 85//3 80//3 81//3
g wall_4_23
usemtl wall_1_2
v 595.423 250.0 807.6537
v 709.88446 250.0 807.6537
f 59//4 66//4 86//4 70//4
f 66//7 67//7 87//7 86//7
f 67//10 60//10 73//10 87//10
v 892.88446 250.0 807.6537
v 1201.423 250.0 807.6537
f 63//4 68//4 88//4 74//4
f 68//7 69//7 89//7 88//7
f 69//10 64//10 77//10 89//10
v 709.88446 208.5 807.6537
v 801.38446 208.5 807.6537
v 801.38446 250.0 807.6537
f 79//4 90//4 87//4 73//4
f 90//7 91//7 92//7 87//7
f 91//10 80//10 83//10 92//10
f 80//3 91//3 90//3
f 80//3 90//3 79//3
v 892.88446 208.5 807.6537
f 80//4 91//4 92//4 83//4
f 91//7 93//7 88//7 92//7
f 93//10 84//10 74//10 88//10
f 84//3 93//3 91//3
f 84//3 91//3 80//3
g wall_4_24
usemtl wall_1_2
f 71//1 70//1 73//1
f 71//1 73//1 72//1
f 75//1 74//1 77//1
f 75//1 77//1 76//1
f 72//1 73//1 83//1
f 72//1 83//1 82//1
f 82//1 83//1 74//1
f 82//1 74//1 75//1
g wall_4_25
usemtl wall_1_2
f 70//1 86//1 87//1
f 70//1 87//1 73//1
f 74//1 88//1 89//1
f 74//1 89//1 77//1
f 73//1 87//1 92//1
f 73//1 92//1 83//1
f 83//1 92//1 88//1
f 83//1 88//1 74//1
g wall_5_26
usemtl wall_1_2
v 100.42297 0.0 593.4422
v 96.67297 0.0 597.1922
v 595.423 0.0 597.1922
v 595.423 0.0 593.4422
f 97//3 96//3 95//3
f 97//3 95//3 94//3
g wall_5_27
usemtl wall_1_2
v 104.17297 0.0 589.6922
v 595.423 0.0 589.6922
f 99//3 97//3 94//3
f 99//3 94//3 98//3
g wall_5_28
usemtl wall_1_2
v 96.67297 250.0 597.1922
v 100.42297 250.0 593.4422
v 595.423 250.0 597.1922
v 595.423 250.0 593.4422
f 94//8 95//8 100//8 101//8
f 95//7 96//7 102//7 100//7
f 96//10 97//10 103//10 102//10
g wall_5_29
usemtl wall_1_2
v 104.17297 250.0 589.6922
v 595.423 250.0 589.6922
f 98//8 94//8 101//8 104//8
f 97//10 99//10 105//10 103//10
f 99//6 98//6 104//6 105//6
g wall_5_30
usemtl wall_1_2
f 101//1 100//1 102//1
f 101//1 102//1 103//1
g wall_5_31
usemtl wall_1_2
f 104//1 101//1 103//1
f 104//1 103//1 105//1
g wall_6_32
usemtl wall_1_2
v 96.67297 0.0 194.6922
v 100.42297 0.0 198.4422
f 107//3 94//3 95//3
f 107//3 95//3 106//3
g wall_6_33
usemtl wall_1_2
v 104.17297 0.0 202.1922
f 108//3 98//3 94//3
f 108//3 94//3 107//3
g wall_6_34
usemtl wall_1_2
v 96.67297 250.0 194.6922
v 100.42297 250.0 198.4422
f 106//4 95//4 100//4 109//4
f 95//5 94//5 101//5 100//5
f 107//11 106//11 109//11 110//11
g wall_6_35
usemtl wall_1_2
v 104.17297 250.0 202.1922
f 94//5 98//5 104//5 101//5
f 98//10 108//10 111//10 104//10
f 108//11 107//11 110//11 111//11
g wall_6_36
usemtl wall_1_2
f 109//1 100//1 101//1
f 109//1 101//1 110//1
g wall_6_37
usemtl wall_1_2
f 110//1 101//1 104//1
f 110//1 104//1 111//1
g wall_7_38
usemtl wall_1_2
v 595.423 0.0 198.4422
v 595.423 0.0 194.6922
f 113//3 112//3 107//3
f 113//3 107//3 106//3
g wall_7_39
usemtl wall_1_2
v 595.423 0.0 202.1922
f 112//3 114//3 108//3
f 112//3 108//3 107//3
g wall_7_40
usemtl wall_1_2
v 595.423 250.0 194.6922
v 595.423 250.0 198.4422
f 106//9 107//9 110//9 109//9
f 112//10 113//10 115//10 116//10
f 113//6 106//6 109//6 115//6
g wall_7_41
usemtl wall_1_2
v 595.423 250.0 202.1922
f 107//9 108//9 111//9 110//9
f 108//7 114//7 117//7 111//7
f 114//10 112//10 116//10 117//10
g wall_7_42
usemtl wall_1_2
f 109//1 110//1 116//1
f 109//1 116//1 115//1
g wall_7_43
usemtl wall_1_2
f 110//1 111//1 117//1
f 110//1 117//1 116//1
g wall_8_44
usemtl wall_1_2
v 591.673 0.0 593.4422
f 97//3 34//3 35//3
f 97//3 35//3 118//3
g wall_8_45
usemtl wall_1_2
v 599.173 0.0 593.4422
f 119//3 40//3 34//3
f 119//3 34//3 97//3
g wall_8_46
usemtl wall_1_2
v 591.673 250.0 593.4422
f 118//4 35//4 43//4 120//4
f 35//5 34//5 44//5 43//5
f 97//6 118//6 120//6 103//6
g wall_8_47
usemtl wall_1_2
v 599.173 250.0 593.4422
f 34//5 40//5 53//5 44//5
f 40//10 119//10 121//10 53//10
f 119//6 97//6 103//6 121//6
g wall_8_48
usemtl wall_1_2
f 120//1 43//1 44//1
f 120//1 44//1 103//1
g wall_8_49
usemtl wall_1_2
f 103//1 44//1 53//1
f 103//1 53//1 121//1
g wall_9_50
usemtl wall_1_2
v 591.673 0.0 198.4422
v 591.673 0.0 399.596
v 595.423 0.0 399.596
f 112//3 124//3 123//3
f 112//3 123//3 122//3
v 591.673 0.0 491.096
v 595.423 0.0 491.096
f 126//3 97//3 118//3
f 126//3 118//3 125//3
g wall_9_51
usemtl wall_1_2
v 599.173 0.0 399.596
v 599.173 0.0 198.4422
f 128//3 127//3 124//3
f 128//3 124//3 112//3
v 599.173 0.0 491.096
f 129//3 119//3 97//3
f 129//3 97//3 126//3
g wall_9_52
usemtl wall_1_2
v 591.673 250.0 399.596
v 591.673 250.0 198.4422
v 595.423 250.0 399.596
f 122//4 123//4 130//4 131//4
f 123//7 124//7 132//7 130//7
f 112//6 122//6 131//6 116//6
v 591.673 250.0 491.096
v 595.423 250.0 491.096
f 125//4 118//4 120//4 133//4
f 118//7 97//7 103//7 120//7
f 126//6 125//6 133//6 134//6
v 591.673 208.5 399.596
v 591.673 208.5 491.096
v 595.423 208.5 491.096
v 595.423 208.5 399.596
f 135//4 136//4 133//4 130//4
f 136//7 137//7 134//7 133//7
f 138//6 135//6 130//6 132//6
f 138//3 137//3 136//3
f 138//3 136//3 135//3
g wall_9_53
usemtl wall_1_2
v 599.173 250.0 399.596
v 599.173 250.0 198.4422
f 124//7 127//7 139//7 132//7
f 127//10 128//10 140//10 139//10
f 128//6 112//6 116//6 140//6
v 599.173 250.0 491.096
f 97//7 119//7 121//7 103//7
f 119//10 129//10 141//10 121//10
f 129//6 126//6 134//6 141//6
v 599.173 208.5 491.096
v 599.173 208.5 399.596
f 137//7 142//7 141//7 134//7
f 142//10 143//10 139//10 141//10
f 143//6 138//6 132//6 139//6
f 143//3 142//3 137//3
f 143//3 137//3 138//3
g wall_9_54
usemtl wall_1_2
f 131//1 130//1 132//1
f 131//1 132//1 116//1
f 133//1 120//1 103//1
f 133//1 103//1 134//1
f 130//1 133//1 134//1
f 130//1 134//1 132//1
g wall_9_55
usemtl wall_1_2
f 116//1 132//1 139//1
f 116//1 139//1 140//1
f 134//1 103//1 121//1
f 134//1 121//1 141//1
f 132//1 134//1 141//1
f 132//1 141//1 139//1
g wall_10_56
usemtl wall_1_2
v 591.6729 0.0 -198.55777
v 595.4229 0.0 -198.55777
f 145//3 112//3 122//3
f 145//3 122//3 144//3
g wall_10_57
usemtl wall_1_2
v 599.1729 0.0 -198.55777
f 146//3 128//3 112//3
f 146//3 112//3 145//3
g wall_10_58
usemtl wall_1_2
v 591.6729 250.0 -198.55777
v 595.4229 250.0 -198.55777
vn -1.0 0.0 0.0000002
f 144//12 122//12 131//12 147//12
f 122//7 112//7 116//7 131//7
f 145//6 144//6 147//6 148//6
g wall_10_59
usemtl wall_1_2
v 599.1729 250.0 -198.55777
vn 1.0 0.0 -0.0000002
f 112//7 128//7 140//7 116//7
f 128//13 146//13 149//13 140//13
f 146//6 145//6 148//6 149//6
g wall_10_60
usemtl wall_1_2
f 147//1 131//1 116//1
f 147//1 116//1 148//1
g wall_10_61
usemtl wall_1_2
f 148//1 116//1 140//1
f 148//1 140//1 149//1
g room_11_62
usemtl room_11_62
v 597.03845 0.0 200.13446
v 597.03845 0.0 597.13446
vt 11.903845 4.008077 0
vt 11.903845 -4.002689 0
vt 11.940769 -4.002689 0
vt 11.940769 -11.942689 0
vt 11.903845 -11.942689 0
vt 11.903845 -16.011917 0
vt 23.943844 -16.011917 0
vt 23.943844 4.008077 0
f 6/7/1 5/8/1 16/1/1
f 12/5/1 11/6/1 6/7/1
f 151/4/1 12/5/1 6/7/1
f 150/3/1 151/4/1 6/7/1
f 150/3/1 6/7/1 16/1/1
f 150/3/1 16/1/1 15/2/1
g room_12_63
usemtl room_11_62
vt 11.940769 -16.04884 0
vt 11.940769 -28.00884 0
vt 23.980768 -28.00884 0
vt 23.980768 -16.04884 0
f 10/9/1 9/10/1 8/11/1
f 10/9/1 8/11/1 7/12/1
g room_13_64
usemtl room_11_62
v 0.0 0.0 0.0
vt 1.980769 -4.002689 0
vt 1.9807687 -11.942689 0
vt 0.0 0.0 0
f 151/4/10 151/4/10 13/14/10
f 13/14/1 151/4/1 14/13/1
f 14/13/1 151/4/1 150/3/1
g Montant_65
usemtl white
v 590.67267 208.5 491.096
v 590.67267 0.0 491.096
v 600.1734 0.0 491.096
v 600.1734 208.5 491.096
v 600.1734 0.0 485.596
v 594.623 0.0 485.596
v 594.623 203.0 485.596
v 600.1734 203.0 485.596
v 600.1734 208.5 399.596
v 590.67267 208.5 399.596
v 594.623 204.09999 403.996
v 590.67267 204.09999 403.996
v 590.67267 0.0 403.996
v 594.623 0.0 403.996
v 600.1734 0.0 399.596
v 590.67267 0.0 399.596
v 594.623 204.09999 486.696
v 590.67267 204.09999 486.696
v 594.623 203.0 405.096
v 594.623 0.0 405.096
v 600.1734 0.0 405.096
v 600.1734 203.0 405.096
v 590.67267 0.0 486.696
v 594.623 0.0 486.696
vn 0.0000001 0.0 1.0
vn -0.0000001 0.0 -1.0
vn -1.0 0.0 0.0000001
vn -1.0 0.0 0.0000001
vn 1.0 0.0 -0.0000001
vn 1.0 0.0 -0.0000001
f 153//14 154//14 155//14
f 153//14 155//14 156//14
f 157//15 158//15 159//15
f 157//15 159//15 160//15
f 161//1 162//1 153//1
f 161//1 153//1 156//1
f 163//14 164//14 165//14
f 163//14 165//14 166//14
f 162//15 161//15 167//15
f 162//15 167//15 168//15
f 164//3 163//3 169//3
f 164//3 169//3 170//3
f 171//14 172//14 173//14
f 171//14 173//14 174//14
f 175//16 154//16 153//16
f 170//17 175//17 153//17
f 170//17 153//17 162//17
f 164//17 170//17 162//17
f 164//16 162//16 168//16
f 164//17 168//17 165//17
f 175//15 170//15 169//15
f 175//15 169//15 176//15
f 174//18 173//18 167//18
f 174//18 167//18 161//18
f 174//19 161//19 156//19
f 160//19 174//19 156//19
f 160//18 156//18 155//18
f 160//18 155//18 157//18
f 174//3 160//3 159//3
f 174//3 159//3 171//3
f 166//3 165//3 168//3
f 166//3 168//3 167//3
f 155//3 154//3 175//3
f 155//3 175//3 176//3
f 167//3 173//3 172//3
f 167//3 172//3 166//3
f 157//3 155//3 176//3
f 157//3 176//3 158//3
f 163//17 171//17 159//17
f 163//17 159//17 169//17
f 158//17 176//17 169//17
f 158//17 169//17 159//17
f 163//17 166//17 172//17
f 163//17 172//17 171//17
g Montant_66
usemtl white
v 801.38446 208.5 808.654
v 801.38446 0.0 808.654
v 801.38446 0.0 799.15326
v 801.38446 208.5 799.15326
v 795.88446 0.0 799.15326
v 795.88446 0.0 804.7037
v 795.88446 203.0 804.7037
v 795.88446 203.0 799.15326
v 709.88446 208.5 799.15326
v 709.88446 208.5 808.654
v 714.2845 204.09999 804.7037
v 714.2845 204.09999 808.654
v 714.2845 0.0 808.654
v 714.2845 0.0 804.7037
v 709.88446 0.0 799.15326
v 709.88446 0.0 808.654
v 796.98444 204.09999 804.7037
v 796.98444 204.09999 808.654
v 715.38446 203.0 804.7037
v 715.38446 0.0 804.7037
v 715.38446 0.0 799.15326
v 715.38446 203.0 799.15326
v 796.98444 0.0 808.654
v 796.98444 0.0 804.7037
f 177//10 178//10 179//10
f 177//10 179//10 180//10
f 181//4 182//4 183//4
f 181//4 183//4 184//4
f 185//1 186//1 177//1
f 185//1 177//1 180//1
f 187//10 188//10 189//10
f 187//10 189//10 190//10
f 186//4 185//4 191//4
f 186//4 191//4 192//4
f 188//3 187//3 193//3
f 188//3 193//3 194//3
f 195//10 196//10 197//10
f 195//10 197//10 198//10
f 199//7 178//7 177//7
f 194//7 199//7 177//7
f 194//7 177//7 186//7
f 188//7 194//7 186//7
f 188//7 186//7 192//7
f 188//7 192//7 189//7
f 199//4 194//4 193//4
f 199//4 193//4 200//4
f 198//6 197//6 191//6
f 198//6 191//6 185//6
f 198//6 185//6 180//6
f 184//6 198//6 180//6
f 184//6 180//6 179//6
f 184//6 179//6 181//6
f 198//3 184//3 183//3
f 198//3 183//3 195//3
f 190//3 189//3 192//3
f 190//3 192//3 191//3
f 179//3 178//3 199//3
f 179//3 199//3 200//3
f 191//3 197//3 196//3
f 191//3 196//3 190//3
f 181//3 179//3 200//3
f 181//3 200//3 182//3
f 187//7 195//7 183//7
f 187//7 183//7 193//7
f 182//7 200//7 193//7
f 182//7 193//7 183//7
f 187//7 190//7 196//7
f 187//7 196//7 195//7
g Montant_67
usemtl white
v 801.38446 208.5 799.1534
v 801.38446 0.0 799.1534
v 801.38446 0.0 808.6541
v 801.38446 208.5 808.6541
v 806.88446 0.0 808.6541
v 806.88446 0.0 803.1037
v 806.88446 203.0 803.1037
v 806.88446 203.0 808.6541
v 892.88446 208.5 808.6541
v 892.88446 208.5 799.1534
v 888.48444 204.09999 803.1037
v 888.48444 204.09999 799.1534
v 888.48444 0.0 799.1534
v 888.48444 0.0 803.1037
v 892.88446 0.0 808.6541
v 892.88446 0.0 799.1534
v 805.7845 204.09999 803.1037
v 805.7845 204.09999 799.1534
v 887.38446 203.0 803.1037
v 887.38446 0.0 803.1037
v 887.38446 0.0 808.6541
v 887.38446 203.0 808.6541
v 805.7845 0.0 799.1534
v 805.7845 0.0 803.1037
vn -1.0 0.0 -0.0000001
vn 1.0 0.0 0.0000001
vn 0.0000001 0.0 -1.0
vn 0.0000001 0.0 -1.0
vn -0.0000001 0.0 1.0
vn -0.0000001 0.0 1.0
f 201//20 202//20 203//20
f 201//20 203//20 204//20
f 205//21 206//21 207//21
f 205//21 207//21 208//21
f 209//1 210//1 201//1
f 209//1 201//1 204//1
f 211//20 212//20 213//20
f 211//20 213//20 214//20
f 210//21 209//21 215//21
f 210//21 215//21 216//21
f 212//3 211//3 217//3
f 212//3 217//3 218//3
f 219//20 220//20 221//20
f 219//20 221//20 222//20
f 223//22 202//22 201//22
f 218//23 223//23 201//23
f 218//23 201//23 210//23
f 212//23 218//23 210//23
f 212//22 210//22 216//22
f 212//23 216//23 213//23
f 223//21 218//21 217//21
f 223//21 217//21 224//21
f 222//24 221//24 215//24
f 222//24 215//24 209//24
f 222//25 209//25 204//25
f 208//25 222//25 204//25
f 208//24 204//24 203//24
f 208//24 203//24 205//24
f 222//3 208//3 207//3
f 222//3 207//3 219//3
f 214//3 213//3 216//3
f 214//3 216//3 215//3
f 203//3 202//3 223//3
f 203//3 223//3 224//3
f 215//3 221//3 220//3
f 215//3 220//3 214//3
f 205//3 203//3 224//3
f 205//3 224//3 206//3
f 211//23 219//23 207//23
f 211//23 207//23 217//23
f 206//23 224//23 217//23
f 206//23 217//23 207//23
f 211//23 214//23 220//23
f 211//23 220//23 219//23
g Montant_68
usemtl white
v 671.11523 208.5 1397.692
v 671.11523 0.0 1397.692
v 671.11523 0.0 1407.1927
v 671.11523 208.5 1407.1927
v 676.61523 0.0 1407.1927
v 676.61523 0.0 1401.6423
v 676.61523 203.0 1401.6423
v 676.61523 203.0 1407.1927
v 762.61523 208.5 1407.1927
v 762.61523 208.5 1397.692
v 758.2152 204.09999 1401.6423
v 758.2152 204.09999 1397.692
v 758.2152 0.0 1397.692
v 758.2152 0.0 1401.6423
v 762.61523 0.0 1407.1927
v 762.61523 0.0 1397.692
v 675.51526 204.09999 1401.6423
v 675.51526 204.09999 1397.692
v 757.11523 203.0 1401.6423
v 757.11523 0.0 1401.6423
v 757.11523 0.0 1407.1927
v 757.11523 203.0 1407.1927
v 675.51526 0.0 1397.692
v 675.51526 0.0 1401.6423
f 225//20 226//20 227//20
f 225//20 227//20 228//20
f 229//21 230//21 231//21
f 229//21 231//21 232//21
f 233//1 234//1 225//1
f 233//1 225//1 228//1
f 235//20 236//20 237//20
f 235//20 237//20 238//20
f 234//21 233//21 239//21
f 234//21 239//21 240//21
f 236//3 235//3 241//3
f 236//3 241//3 242//3
f 243//20 244//20 245//20
f 243//20 245//20 246//20
f 247//22 226//22 225//22
f 242//23 247//23 225//23
f 242//23 225//23 234//23
f 236//23 242//23 234//23
f 236//22 234//22 240//22
f 236//23 240//23 237//23
f 247//21 242//21 241//21
f 247//21 241//21 248//21
f 246//24 245//24 239//24
f 246//24 239//24 233//24
f 246//25 233//25 228//25
f 232//25 246//25 228//25
f 232//24 228//24 227//24
f 232//24 227//24 229//24
f 246//3 232//3 231//3
f 246//3 231//3 243//3
f 238//3 237//3 240//3
f 238//3 240//3 239//3
f 227//3 226//3 247//3
f 227//3 247//3 248//3
f 239//3 245//3 244//3
f 239//3 244//3 238//3
f 229//3 227//3 248//3
f 229//3 248//3 230//3
f 235//23 243//23 231//23
f 235//23 231//23 241//23
f 230//23 248//23 241//23
f 230//23 241//23 231//23
f 235//23 238//23 244//23
f 235//23 244//23 243//23
